<svg width="32" height="22" viewBox="0 0 32 22" fill="none" xmlns="http://www.w3.org/2000/svg">
<path d="M31.7219 20.0349C31.7219 20.8696 30.8871 21.7044 30.0523 21.7044L1.66957 21.7044C0.834786 21.7044 0 20.8696 0 20.0349V3.41178C0 3.02656 0.423837 2.79001 0.754117 2.99088L14.827 11.5499C15.4616 11.9358 16.2603 11.9358 16.8948 11.5499L30.9677 2.99088C31.298 2.79001 31.7219 3.02656 31.7219 3.41178V20.0349Z" fill="#505B61"/>
<path d="M29.7625 0C30.2631 0 30.4481 0.654443 30.0209 0.914198L16.1194 9.3673C15.9607 9.46377 15.7612 9.46377 15.6025 9.3673L1.70094 0.914199C1.27376 0.654444 1.45875 0 1.95936 0H29.7625Z" fill="#505B61"/>
</svg>
