<svg width="40" height="37" viewBox="0 0 40 37" fill="none" xmlns="http://www.w3.org/2000/svg">
<g filter="url(#filter0_d_327_591)">
<path d="M20 0C29.2211 0 36.6957 7.47467 36.6957 16.6957C36.6957 25.9168 29.2211 33.3914 20 33.3914C17.0495 33.3965 14.1508 32.6157 11.6021 31.1292L3.31098 33.3914L5.56824 25.097C4.08058 22.5474 3.29913 19.6475 3.3043 16.6957C3.3043 7.47467 10.779 0 20 0ZM14.3101 8.84873L13.9762 8.86209C13.7603 8.87696 13.5494 8.93367 13.3551 9.02904C13.1741 9.13174 13.0088 9.25994 12.8643 9.40971C12.6639 9.59837 12.5504 9.76198 12.4285 9.92059C11.811 10.7235 11.4785 11.7092 11.4835 12.7221C11.4869 13.5402 11.7006 14.3366 12.0345 15.0812C12.7173 16.5872 13.841 18.1816 15.3235 19.6592C15.6808 20.0148 16.0314 20.3721 16.4088 20.7044C18.251 22.3262 20.4463 23.4958 22.8199 24.1203L23.7682 24.2656C24.0771 24.2822 24.386 24.2589 24.6965 24.2438C25.1827 24.2182 25.6573 24.0866 26.0873 23.8582C26.3057 23.7452 26.5191 23.6227 26.7267 23.4909C26.7267 23.4909 26.7974 23.443 26.9354 23.3406C27.1608 23.1737 27.2994 23.0551 27.4864 22.8598C27.6266 22.7151 27.7435 22.547 27.837 22.3556C27.9672 22.0834 28.0974 21.5642 28.1509 21.1318C28.1909 20.8012 28.1792 20.6209 28.1742 20.509C28.1676 20.3304 28.019 20.1451 27.857 20.0666L26.8853 19.6308C26.8853 19.6308 25.4328 18.9981 24.5446 18.594C24.4516 18.5535 24.352 18.5303 24.2507 18.5256C24.1365 18.5136 24.021 18.5264 23.9121 18.5629C23.8032 18.5995 23.7035 18.6591 23.6196 18.7376C23.6113 18.7343 23.4994 18.8294 22.2923 20.292C22.2231 20.3851 22.1276 20.4554 22.0182 20.4941C21.9088 20.5327 21.7903 20.5379 21.6779 20.509C21.5691 20.48 21.4626 20.4432 21.359 20.3988C21.152 20.312 21.0802 20.2786 20.9383 20.2185C19.9798 19.801 19.0925 19.2359 18.3087 18.5439C18.0984 18.3603 17.903 18.1599 17.7027 17.9663C17.0459 17.3372 16.4735 16.6256 15.9997 15.8492L15.9012 15.6906C15.8315 15.5834 15.7744 15.4686 15.7309 15.3484C15.6675 15.1029 15.8328 14.9059 15.8328 14.9059C15.8328 14.9059 16.2385 14.4618 16.4271 14.2214C16.6108 13.9877 16.7661 13.7606 16.8662 13.5987C17.0632 13.2814 17.125 12.9559 17.0215 12.7038C16.554 11.5618 16.071 10.4259 15.5723 9.29617C15.4738 9.07245 15.1816 8.91217 14.9162 8.88045C14.826 8.86932 14.7359 8.86042 14.6457 8.85374C14.4215 8.84088 14.1967 8.84311 13.9729 8.86042L14.3101 8.84873Z" fill="#505B61"/>
</g>
<defs>
<filter id="filter0_d_327_591" x="-0.695724" y="0" width="41.3915" height="41.3915" filterUnits="userSpaceOnUse" color-interpolation-filters="sRGB">
<feFlood flood-opacity="0" result="BackgroundImageFix"/>
<feColorMatrix in="SourceAlpha" type="matrix" values="0 0 0 0 0 0 0 0 0 0 0 0 0 0 0 0 0 0 127 0" result="hardAlpha"/>
<feOffset dy="4"/>
<feGaussianBlur stdDeviation="2"/>
<feComposite in2="hardAlpha" operator="out"/>
<feColorMatrix type="matrix" values="0 0 0 0 0.0392157 0 0 0 0 0.0823529 0 0 0 0 0.117647 0 0 0 0.35 0"/>
<feBlend mode="normal" in2="BackgroundImageFix" result="effect1_dropShadow_327_591"/>
<feBlend mode="normal" in="SourceGraphic" in2="effect1_dropShadow_327_591" result="shape"/>
</filter>
</defs>
</svg>
