<svg width="40" height="37" viewBox="0 0 40 37" fill="none" xmlns="http://www.w3.org/2000/svg">
<g filter="url(#filter0_d_475_387)">
<path d="M19.9999 0C29.221 0 36.6957 7.47467 36.6957 16.6957C36.6957 25.9168 29.221 33.3914 19.9999 33.3914C17.0494 33.3965 14.1507 32.6157 11.602 31.1292L3.3109 33.3914L5.56816 25.097C4.08051 22.5474 3.29905 19.6475 3.30422 16.6957C3.30422 7.47467 10.7789 0 19.9999 0ZM14.31 8.84873L13.9761 8.86209C13.7602 8.87696 13.5493 8.93367 13.355 9.02904C13.174 9.13174 13.0087 9.25994 12.8642 9.40971C12.6638 9.59837 12.5503 9.76198 12.4284 9.92059C11.8109 10.7235 11.4784 11.7092 11.4835 12.7221C11.4868 13.5402 11.7005 14.3366 12.0344 15.0812C12.7173 16.5872 13.8409 18.1816 15.3235 19.6592C15.6808 20.0148 16.0314 20.3721 16.4087 20.7044C18.251 22.3262 20.4462 23.4958 22.8198 24.1203L23.7682 24.2656C24.077 24.2822 24.3859 24.2589 24.6964 24.2438C25.1826 24.2182 25.6573 24.0866 26.0872 23.8582C26.3057 23.7452 26.519 23.6227 26.7266 23.4909C26.7266 23.4909 26.7973 23.443 26.9353 23.3406C27.1607 23.1737 27.2993 23.0551 27.4863 22.8598C27.6265 22.7151 27.7434 22.547 27.8369 22.3556C27.9671 22.0834 28.0974 21.5642 28.1508 21.1318C28.1909 20.8012 28.1792 20.6209 28.1742 20.509C28.1675 20.3304 28.0189 20.1451 27.8569 20.0666L26.8853 19.6308C26.8853 19.6308 25.4327 18.9981 24.5445 18.594C24.4515 18.5535 24.352 18.5303 24.2507 18.5256C24.1364 18.5136 24.0209 18.5264 23.9121 18.5629C23.8032 18.5995 23.7034 18.6591 23.6196 18.7376C23.6112 18.7343 23.4994 18.8294 22.2923 20.292C22.223 20.3851 22.1275 20.4554 22.0181 20.4941C21.9087 20.5327 21.7902 20.5379 21.6779 20.509C21.569 20.48 21.4625 20.4432 21.359 20.3988C21.1519 20.312 21.0802 20.2786 20.9382 20.2185C19.9797 19.801 19.0924 19.2359 18.3087 18.5439C18.0983 18.3603 17.903 18.1599 17.7026 17.9663C17.0458 17.3372 16.4734 16.6256 15.9996 15.8492L15.9011 15.6906C15.8315 15.5834 15.7743 15.4686 15.7308 15.3484C15.6674 15.1029 15.8327 14.9059 15.8327 14.9059C15.8327 14.9059 16.2384 14.4618 16.4271 14.2214C16.6107 13.9877 16.766 13.7606 16.8662 13.5987C17.0632 13.2814 17.1249 12.9559 17.0214 12.7038C16.5539 11.5618 16.0709 10.4259 15.5722 9.29617C15.4737 9.07245 15.1816 8.91217 14.9161 8.88045C14.8259 8.86932 14.7358 8.86042 14.6456 8.85374C14.4214 8.84088 14.1967 8.84311 13.9728 8.86042L14.31 8.84873Z" fill="#505B61"/>
</g>
<defs>
<filter id="filter0_d_475_387" x="-0.695801" y="0" width="41.3914" height="41.3914" filterUnits="userSpaceOnUse" color-interpolation-filters="sRGB">
<feFlood flood-opacity="0" result="BackgroundImageFix"/>
<feColorMatrix in="SourceAlpha" type="matrix" values="0 0 0 0 0 0 0 0 0 0 0 0 0 0 0 0 0 0 127 0" result="hardAlpha"/>
<feOffset dy="4"/>
<feGaussianBlur stdDeviation="2"/>
<feComposite in2="hardAlpha" operator="out"/>
<feColorMatrix type="matrix" values="0 0 0 0 0.0392157 0 0 0 0 0.0823529 0 0 0 0 0.117647 0 0 0 0.35 0"/>
<feBlend mode="normal" in2="BackgroundImageFix" result="effect1_dropShadow_475_387"/>
<feBlend mode="normal" in="SourceGraphic" in2="effect1_dropShadow_475_387" result="shape"/>
</filter>
</defs>
</svg>
